<svg width="19" height="19" viewBox="0 0 19 19" fill="none" xmlns="http://www.w3.org/2000/svg">
<g clip-path="url(#clip0_164_3309)">
<path d="M17.2519 14.8068C16.9646 15.4706 16.6244 16.0816 16.2304 16.6434C15.6932 17.4092 15.2534 17.9393 14.9145 18.2337C14.3891 18.7169 13.8261 18.9644 13.2233 18.9784C12.7905 18.9784 12.2687 18.8553 11.6611 18.6055C11.0516 18.3568 10.4915 18.2337 9.97934 18.2337C9.4422 18.2337 8.86612 18.3568 8.24993 18.6055C7.6328 18.8553 7.13565 18.9855 6.75554 18.9984C6.17747 19.023 5.60127 18.7685 5.02613 18.2337C4.65904 17.9135 4.19989 17.3647 3.64985 16.5871C3.05969 15.7567 2.5745 14.7939 2.1944 13.6961C1.78732 12.5104 1.58325 11.3622 1.58325 10.2507C1.58325 8.97735 1.85839 7.87914 2.40949 6.95884C2.84261 6.21962 3.4188 5.6365 4.13996 5.20843C4.86112 4.78035 5.64033 4.56221 6.47947 4.54825C6.93862 4.54825 7.54073 4.69028 8.28898 4.96941C9.03512 5.24947 9.51421 5.3915 9.72426 5.3915C9.8813 5.3915 10.4135 5.22543 11.3157 4.89435C12.169 4.58731 12.8891 4.46018 13.479 4.51026C15.0775 4.63926 16.2785 5.26941 17.0771 6.40469C15.6475 7.27092 14.9403 8.48418 14.9544 10.0406C14.9673 11.2529 15.4071 12.2618 16.2714 13.0628C16.6631 13.4346 17.1006 13.7219 17.5873 13.926C17.4818 14.2321 17.3703 14.5253 17.2519 14.8068ZM13.5857 0.380108C13.5857 1.33033 13.2386 2.21754 12.5466 3.03874C11.7116 4.01498 10.7016 4.5791 9.60627 4.49008C9.59232 4.37609 9.58422 4.25611 9.58422 4.13003C9.58422 3.21782 9.98133 2.24158 10.6865 1.44337C11.0386 1.03922 11.4864 0.703181 12.0294 0.435112C12.5712 0.171044 13.0837 0.025008 13.5658 0C13.5798 0.127029 13.5857 0.254066 13.5857 0.380096V0.380108Z" fill="black"/>
</g>
<defs>
<clipPath id="clip0_164_3309">
<rect width="19" height="19" fill="white"/>
</clipPath>
</defs>
</svg>
