<svg width="124" height="123" viewBox="0 0 124 123" fill="none" xmlns="http://www.w3.org/2000/svg">
<g clip-path="url(#clip0_147_515)">
<path fill-rule="evenodd" clip-rule="evenodd" d="M9.27067 55.99C4.06067 78.62 0.170667 100.84 0.860667 122.94C8.13067 121.89 18.0307 115.04 27.4507 103.79C50.0907 116.56 71.8107 113.73 92.8407 99.1C119.751 95.12 128.911 83.47 119.821 63.91L85.4107 14.48C83.6407 11.94 84.4707 12.99 81.5607 10.46L74.9707 4.73001C72.2307 0.360013 68.7507 -0.809987 64.6607 0.680013L55.3707 3.72001C49.4007 6.06001 47.6807 9.27001 50.1307 13.34L52.9607 17.9C54.4707 21.7 56.8307 23.45 60.6307 21.7L61.1907 21.52C61.1007 21.27 61.0707 20.99 61.1407 20.71C61.3407 19.85 61.5407 19.04 61.7207 18.31C62.2307 16.23 62.5507 14.93 62.4407 14.66C62.3607 14.47 61.5207 15.3 58.9807 16.32C58.2507 16.61 57.4207 16.26 57.1307 15.53C56.8407 14.8 57.1907 13.97 57.9207 13.68C62.3507 11.9 64.2707 11.58 65.0907 13.6C65.5407 14.73 65.1407 16.36 64.4907 18.99C64.3707 19.47 64.2407 19.99 64.1107 20.57L64.4907 20.44L64.0407 20.61C73.0107 17.23 71.5307 22.32 77.4207 31.17C84.7707 42.22 88.6907 55.39 88.7607 70.95C75.1307 59.46 59.5307 59.86 42.7007 67.72C34.3207 58 23.0207 54.43 9.27067 55.99Z" fill="black"/>
</g>
<defs>
<clipPath id="clip0_147_515">
<rect width="122.44" height="122.88" fill="white" transform="translate(0.780273 0.0599976)"/>
</clipPath>
</defs>
</svg>
