<svg width="22" height="21" viewBox="0 0 22 21" fill="none" xmlns="http://www.w3.org/2000/svg">
<g clip-path="url(#clip0_432_561)">
<path fill-rule="evenodd" clip-rule="evenodd" d="M0 18.1456H2.63542V0.510518C2.63542 0.356547 2.76253 0.229431 2.9165 0.229431H11.8433C11.9972 0.229431 12.1243 0.356547 12.1243 0.510518V7.12233H20.0234C20.1774 7.12233 20.3045 7.24945 20.3045 7.40342V18.1438H22V20.4695H0V18.1456ZM4.89128 2.88275H6.71745C6.77295 2.88275 6.8195 2.9293 6.8195 2.9848V5.19769C6.8195 5.25319 6.77295 5.29974 6.71745 5.29974H4.89128C4.83577 5.29974 4.78923 5.25319 4.78923 5.19769V2.9848C4.78923 2.9293 4.83577 2.88275 4.89128 2.88275ZM7.98503 13.8899H9.8112C9.8667 13.8899 9.91325 13.9365 9.91325 13.992V16.2049C9.91325 16.2604 9.8667 16.3069 9.8112 16.3069H7.98503C7.92952 16.3069 7.88298 16.2604 7.88298 16.2049V13.992C7.88298 13.9347 7.92952 13.8899 7.98503 13.8899ZM4.89128 13.8899H6.71745C6.77295 13.8899 6.8195 13.9365 6.8195 13.992V16.2049C6.8195 16.2604 6.77295 16.3069 6.71745 16.3069H4.89128C4.83577 16.3069 4.78923 16.2604 4.78923 16.2049V13.992C4.78923 13.9347 4.83577 13.8899 4.89128 13.8899ZM7.98503 10.2197H9.8112C9.8667 10.2197 9.91325 10.2662 9.91325 10.3217V12.5346C9.91325 12.5901 9.8667 12.6367 9.8112 12.6367H7.98503C7.92952 12.6367 7.88298 12.5901 7.88298 12.5346V10.3235C7.88298 10.2662 7.92952 10.2197 7.98503 10.2197ZM4.89128 10.2197H6.71745C6.77295 10.2197 6.8195 10.2662 6.8195 10.3217V12.5346C6.8195 12.5901 6.77295 12.6367 6.71745 12.6367H4.89128C4.83577 12.6367 4.78923 12.5901 4.78923 12.5346V10.3235C4.78923 10.2662 4.83577 10.2197 4.89128 10.2197ZM7.98503 6.55121H9.8112C9.8667 6.55121 9.91325 6.59776 9.91325 6.65326V8.86615C9.91325 8.92165 9.8667 8.9682 9.8112 8.9682H7.98503C7.92952 8.9682 7.88298 8.92165 7.88298 8.86615V6.65326C7.88298 6.59776 7.92952 6.55121 7.98503 6.55121ZM4.89128 6.55121H6.71745C6.77295 6.55121 6.8195 6.59776 6.8195 6.65326V8.86615C6.8195 8.92165 6.77295 8.9682 6.71745 8.9682H4.89128C4.83577 8.9682 4.78923 8.92165 4.78923 8.86615V6.65326C4.78923 6.59776 4.83577 6.55121 4.89128 6.55121ZM7.98503 2.88275H9.8112C9.8667 2.88275 9.91325 2.9293 9.91325 2.9848V5.19769C9.91325 5.25319 9.8667 5.29974 9.8112 5.29974H7.98503C7.92952 5.29974 7.88298 5.25319 7.88298 5.19769V2.9848C7.88298 2.9293 7.92952 2.88275 7.98503 2.88275ZM4.14827 1.53998H10.5793C10.6903 1.53998 10.7816 1.64919 10.7816 1.78168V17.1555C10.7816 17.288 10.6903 17.3972 10.5793 17.3972H4.14827C4.03727 17.3972 3.94596 17.288 3.94596 17.1555V1.78168C3.94596 1.64919 4.03727 1.53998 4.14827 1.53998ZM12.9998 9.79535H14.826C14.8815 9.79535 14.9281 9.8419 14.9281 9.8974V12.1103C14.9281 12.1658 14.8815 12.2123 14.826 12.2123H12.9998C12.9443 12.2123 12.8978 12.1658 12.8978 12.1103V9.8974C12.8978 9.8419 12.9443 9.79535 12.9998 9.79535ZM16.0936 13.8899H17.9198C17.9753 13.8899 18.0218 13.9365 18.0218 13.992V16.2049C18.0218 16.2604 17.9753 16.3069 17.9198 16.3069H16.0936C16.0381 16.3069 15.9915 16.2604 15.9915 16.2049V13.992C15.9915 13.9347 16.0381 13.8899 16.0936 13.8899ZM12.9998 13.8899H14.826C14.8815 13.8899 14.9281 13.9365 14.9281 13.992V16.2049C14.9281 16.2604 14.8815 16.3069 14.826 16.3069H12.9998C12.9443 16.3069 12.8978 16.2604 12.8978 16.2049V13.992C12.8978 13.9347 12.9443 13.8899 12.9998 13.8899ZM16.0936 9.79535H17.9198C17.9753 9.79535 18.0218 9.8419 18.0218 9.8974V12.1103C18.0218 12.1658 17.9753 12.2123 17.9198 12.2123H16.0936C16.0381 12.2123 15.9915 12.1658 15.9915 12.1103V9.8974C15.9915 9.8419 16.0381 9.79535 16.0936 9.79535ZM12.3285 8.43288H18.7594C18.8704 8.43288 18.9618 8.54209 18.9618 8.67458V17.1555C18.9618 17.288 18.8704 17.3972 18.7594 17.3972H12.3285C12.2174 17.3972 12.1261 17.288 12.1261 17.1555V8.67458C12.1261 8.54209 12.2174 8.43288 12.3285 8.43288Z" fill="#757575"/>
</g>
<defs>
<clipPath id="clip0_432_561">
<rect width="22" height="20.2401" fill="white" transform="translate(0 0.229431)"/>
</clipPath>
</defs>
</svg>
