<svg width="37" height="25" viewBox="0 0 37 25" fill="none" xmlns="http://www.w3.org/2000/svg">
<g clip-path="url(#clip0_196_2083)">
<path d="M33.9489 24.0516L33.9521 24.0516C35.4092 24.0641 36.6047 22.8728 36.6229 21.3882L36.6229 3.08443C36.617 2.36646 36.3313 1.68068 35.8292 1.1782C35.3283 0.676995 34.6532 0.399154 33.9489 0.405137L3.44224 0.405124C2.74116 0.399154 2.06606 0.676995 1.56522 1.1782C1.06309 1.68068 0.77734 2.36646 0.771497 3.08132L0.771484 21.3723C0.77734 22.0902 1.06309 22.776 1.56522 23.2785C2.06606 23.7797 2.74116 24.0576 3.44549 24.0516H33.9489ZM33.9473 24.8144C33.9467 24.8144 33.9462 24.8144 33.9456 24.8143L33.9489 24.8144H33.9473Z" fill="white" stroke="black" stroke-opacity="0.2" stroke-width="0.762795"/>
<path d="M19.6328 24.433H33.9502C34.7539 24.4397 35.5273 24.1269 36.1003 23.5633C36.6733 22.9998 36.9989 22.2317 37.0056 21.4281V17.8298C31.5992 20.9333 25.7358 23.1619 19.6328 24.433Z" fill="#F27712"/>
<path d="M35.7433 14.2062H34.4429L32.9783 12.2745H32.8395V14.2062H31.7789V9.40853H33.3445C34.5692 9.40853 35.2762 9.91355 35.2762 10.8226C35.2762 11.5675 34.8343 12.0473 34.0389 12.1988L35.7433 14.2062ZM34.1778 10.8605C34.1778 10.3933 33.8243 10.1534 33.1677 10.1534H32.8395V11.6054H33.1425C33.8243 11.6054 34.1778 11.3529 34.1778 10.8605ZM28.067 9.40853H31.0719V10.2166H29.1275V11.2897H30.9961V12.1104H29.1275V13.4108H31.0719V14.2189H28.067V9.40853ZM24.6581 14.3325L22.3602 9.3959H23.5218L24.9737 12.628L26.4383 9.3959H27.5746L25.2515 14.3325H24.6833H24.6581ZM15.05 14.3199C13.434 14.3199 12.1714 13.2215 12.1714 11.7948C12.1714 10.4059 13.4592 9.28227 15.0753 9.28227C15.5298 9.28227 15.9086 9.37065 16.3757 9.57266V10.6837C16.022 10.3361 15.546 10.1412 15.05 10.1408C14.04 10.1408 13.2698 10.8731 13.2698 11.7948C13.2698 12.7669 14.0274 13.4613 15.1005 13.4613C15.5803 13.4613 15.9464 13.3098 16.3757 12.9311V14.0421C15.8959 14.2441 15.4919 14.3199 15.05 14.3199ZM11.8431 12.7417C11.8431 13.676 11.073 14.3199 9.96192 14.3199C9.15389 14.3199 8.57311 14.0421 8.08071 13.4108L8.77512 12.8174C9.01501 13.2467 9.41903 13.4613 9.92405 13.4613C10.4038 13.4613 10.7447 13.1709 10.7447 12.7922C10.7447 12.5775 10.6437 12.4134 10.4291 12.2872C10.1937 12.173 9.94866 12.08 9.69679 12.0094C8.69937 11.6938 8.35848 11.3529 8.35848 10.6837C8.35848 9.90093 9.09076 9.30752 10.0503 9.30752C10.6563 9.30752 11.1992 9.49691 11.6538 9.85042L11.0982 10.4817C10.8781 10.2403 10.5664 10.1028 10.2397 10.1029C9.78517 10.1029 9.4569 10.3302 9.4569 10.6332C9.4569 10.8857 9.64629 11.0246 10.2776 11.2392C11.4896 11.618 11.8431 11.9715 11.8431 12.7543V12.7417ZM6.62877 9.40853H7.68932V14.2189H6.62877V9.40853ZM3.21987 14.2189H1.6543V9.40853H3.21987C4.93695 9.40853 6.12375 10.3933 6.12375 11.8074C6.12375 12.527 5.77023 13.2088 5.15158 13.6633C4.62131 14.0421 4.0279 14.2189 3.20724 14.2189H3.21987ZM4.45717 10.608C4.10366 10.3302 3.69964 10.2292 3.00523 10.2292H2.71485V13.4108H3.00523C3.68701 13.4108 4.11628 13.2846 4.45717 13.0321C4.82332 12.7291 5.03795 12.2745 5.03795 11.8074C5.03795 11.3402 4.82332 10.8983 4.45717 10.608Z" fill="black"/>
<path d="M19.3279 9.28227C17.939 9.28227 16.8027 10.3933 16.8027 11.7695C16.8027 13.2341 17.8885 14.3325 19.3279 14.3325C20.7419 14.3325 21.853 13.2215 21.853 11.8074C21.853 10.3933 20.7545 9.28227 19.3279 9.28227Z" fill="#F27712"/>
</g>
<defs>
<clipPath id="clip0_196_2083">
<rect width="36.6142" height="24.4094" fill="white" transform="translate(0.386719 0.0236053)"/>
</clipPath>
</defs>
</svg>
