<svg width="94" height="123" viewBox="0 0 94 123" fill="none" xmlns="http://www.w3.org/2000/svg">
<g clip-path="url(#clip0_147_573)">
<path fill-rule="evenodd" clip-rule="evenodd" d="M47.0056 0.0701031C49.1756 -0.0198969 50.8856 0.730103 52.6156 1.8301C54.8056 3.2201 57.2756 5.9701 60.3256 7.7101C64.6156 10.1601 72.5556 6.7801 76.6156 12.8201C78.9856 16.3401 79.0956 19.1001 79.2756 21.8301C79.4656 24.7701 79.9856 27.4801 82.9956 31.4601C87.9856 38.0601 89.0256 42.4501 86.4556 47.0201C84.7056 50.1401 81.0156 51.8701 80.1656 53.8501C78.3456 58.0501 80.3556 61.2201 77.8756 66.1201C76.1456 69.5201 73.4856 71.7601 69.9356 72.9001C66.9456 73.8601 63.9456 72.4701 61.5456 73.4801C57.3356 75.2501 54.2356 79.3601 50.8856 80.4001C49.5956 80.8001 48.3056 81.0001 47.0156 80.9901C45.7256 81.0001 44.4356 80.8001 43.1456 80.4001C39.7956 79.3601 36.6956 75.2501 32.4856 73.4801C30.0856 72.4701 27.0856 73.8701 24.0956 72.9001C20.5456 71.7601 17.8856 69.5201 16.1556 66.1201C13.6656 61.2201 15.6756 58.0501 13.8656 53.8501C13.0156 51.8701 9.32562 50.1401 7.57562 47.0201C4.98562 42.4501 6.02562 38.0601 11.0156 31.4701C14.0256 27.4901 14.5456 24.7801 14.7356 21.8401C14.9156 19.1101 15.0256 16.3501 17.3956 12.8301C21.4656 6.7901 29.4056 10.1701 33.6856 7.7201C36.7356 5.9801 39.2056 3.2301 41.3956 1.8401C43.1156 0.730103 44.8356 -0.0298969 47.0056 0.0701031ZM47.0056 26.0301L51.4656 36.9301L63.2156 37.8001L54.2256 45.4101L57.0256 56.8501L47.0056 50.6501L36.9856 56.8501L39.7856 45.4101L30.7956 37.8001L42.5456 36.9301L47.0056 26.0301ZM89.7856 113.13L78.2356 111.06L72.5056 121.32C68.3456 126.47 65.7056 118 64.5456 115.05L53.3956 94.0201C55.9656 93.1301 59.0656 90.5601 62.2456 87.6701C68.5956 87.8001 74.5156 86.7001 78.8656 81.1601L91.6756 105.91L92.7856 108.29C93.6656 111.38 93.2056 113.42 89.7856 113.13ZM4.21562 113.13L15.7756 111.06L21.5056 121.32C25.6656 126.47 28.3056 118 29.4656 115.05L40.6156 94.0201C38.0456 93.1301 34.9456 90.5601 31.7656 87.6701C25.4156 87.8001 19.4956 86.7001 15.1456 81.1601L2.32562 105.91L1.21562 108.29C0.335621 111.38 0.795621 113.42 4.21562 113.13ZM46.8856 16.1601C60.6856 16.1601 71.8756 27.3501 71.8756 41.1501C71.8756 54.9501 60.6856 66.1401 46.8856 66.1401C33.0856 66.1401 21.8956 54.9501 21.8956 41.1501C21.9056 27.3501 33.0856 16.1601 46.8856 16.1601Z" fill="black"/>
</g>
<defs>
<clipPath id="clip0_147_573">
<rect width="92.35" height="122.88" fill="white" transform="translate(0.825195 0.0600586)"/>
</clipPath>
</defs>
</svg>
