<svg width="18" height="17" viewBox="0 0 18 17" fill="none" xmlns="http://www.w3.org/2000/svg">
<g clip-path="url(#clip0_266_1666)">
<path fill-rule="evenodd" clip-rule="evenodd" d="M8.85714 0.15625C13.7485 0.15625 17.7143 3.73828 17.7143 8.15625C17.7143 12.5742 13.7485 16.1562 8.85714 16.1562C3.96582 16.1562 0 12.5742 0 8.15625C0 3.73828 3.96582 0.15625 8.85714 0.15625ZM7.62891 4.13021H8.71154C8.90904 4.13021 9.07194 4.27734 9.07194 4.45573V8.22396H12.8792C13.0781 8.22396 13.2396 8.37109 13.2396 8.54948V9.52734C13.2396 9.70703 13.0767 9.85287 12.8792 9.85287H7.26707V4.45573C7.26707 4.27604 7.42997 4.13021 7.62891 4.13021ZM8.85714 1.97266C12.6384 1.97266 15.7033 4.74089 15.7033 8.15625C15.7033 11.5716 12.6384 14.3398 8.85714 14.3398C5.07585 14.3398 2.01102 11.5716 2.01102 8.15625C2.01102 4.74219 5.07585 1.97266 8.85714 1.97266Z" fill="#757575"/>
</g>
<defs>
<clipPath id="clip0_266_1666">
<rect width="17.7143" height="16" fill="white" transform="translate(0 0.15625)"/>
</clipPath>
</defs>
</svg>
