<svg width="24" height="21" viewBox="0 0 24 21" fill="none" xmlns="http://www.w3.org/2000/svg">
<g clip-path="url(#clip0_432_541)">
<path fill-rule="evenodd" clip-rule="evenodd" d="M11.6009 0.0447235C18.0085 0.0447235 23.2038 4.73718 23.2038 10.5247C23.2038 16.3123 18.0085 21.0047 11.6009 21.0047C5.19327 21.0047 -0.00195312 16.3123 -0.00195312 10.5247C-0.00195312 4.73718 5.19327 0.0447235 11.6009 0.0447235ZM9.99191 5.25061H11.4102C11.6689 5.25061 11.8823 5.44336 11.8823 5.67704V10.6134H16.8698C17.1304 10.6134 17.3419 10.8062 17.3419 11.0399V12.3209C17.3419 12.5562 17.1285 12.7473 16.8698 12.7473H9.51791V5.67704C9.51791 5.44165 9.7313 5.25061 9.99191 5.25061ZM11.6009 2.42422C16.5544 2.42422 20.5693 6.0506 20.5693 10.5247C20.5693 14.9988 16.5544 18.6252 11.6009 18.6252C6.64741 18.6252 2.63248 14.9988 2.63248 10.5247C2.63248 6.0523 6.64741 2.42422 11.6009 2.42422Z" fill="#757575"/>
</g>
<defs>
<clipPath id="clip0_432_541">
<rect width="23.2057" height="20.96" fill="white" transform="translate(0 0.0447083)"/>
</clipPath>
</defs>
</svg>
