<svg width="20" height="19" viewBox="0 0 20 19" fill="none" xmlns="http://www.w3.org/2000/svg">
<g clip-path="url(#clip0_154_1043)">
<path fill-rule="evenodd" clip-rule="evenodd" d="M9.57895 0.15625C14.8689 0.15625 19.1579 4.18603 19.1579 9.15625C19.1579 14.1265 14.8689 18.1562 9.57895 18.1562C4.28901 18.1562 0 14.1265 0 9.15625C0 4.18603 4.28901 0.15625 9.57895 0.15625ZM8.25062 4.62695H9.42148C9.63507 4.62695 9.81125 4.79248 9.81125 4.99316V9.23242H13.9288C14.1439 9.23242 14.3185 9.39795 14.3185 9.59863V10.6987C14.3185 10.9009 14.1424 11.0649 13.9288 11.0649H7.85929V4.99316C7.85929 4.79102 8.03546 4.62695 8.25062 4.62695ZM9.57895 2.19971C13.6684 2.19971 16.983 5.31396 16.983 9.15625C16.983 12.9985 13.6684 16.1128 9.57895 16.1128C5.4895 16.1128 2.17491 12.9985 2.17491 9.15625C2.17491 5.31543 5.4895 2.19971 9.57895 2.19971Z" fill="#757575"/>
</g>
<defs>
<clipPath id="clip0_154_1043">
<rect width="19.1579" height="18" fill="white" transform="translate(0 0.15625)"/>
</clipPath>
</defs>
</svg>
