<svg width="76" height="76" viewBox="0 0 76 76" fill="none" xmlns="http://www.w3.org/2000/svg">
<path d="M38 0L38.0074 37.9626L52.542 2.89257L38.0211 37.9684L64.87 11.13L38.0316 37.9789L73.1074 23.458L38.0374 37.9926L76 38L38.0374 38.0074L73.1074 52.542L38.0316 38.0211L64.87 64.87L38.0211 38.0316L52.542 73.1074L38.0074 38.0374L38 76L37.9926 38.0374L23.458 73.1074L37.9789 38.0316L11.13 64.87L37.9684 38.0211L2.89257 52.542L37.9626 38.0074L0 38L37.9626 37.9926L2.89257 23.458L37.9684 37.9789L11.13 11.13L37.9789 37.9684L23.458 2.89257L37.9926 37.9626L38 0Z" fill="#F0C3D2" stroke="#008080" stroke-width="1.22581"/>
</svg>
