<svg width="24" height="24" viewBox="0 0 24 24" fill="none" xmlns="http://www.w3.org/2000/svg">
<g clip-path="url(#clip0_432_1388)">
<path d="M5.59766 0.320311H11.5L8.68359 3.26367H5.59766C5.24935 3.26393 4.90454 3.33309 4.58308 3.46717C4.26162 3.60125 3.96986 3.79761 3.72461 4.04492C3.47729 4.29017 3.28094 4.58193 3.14686 4.90339C3.01278 5.22485 2.94362 5.56966 2.94336 5.91797V20.7891H17.8145C18.1628 20.789 18.5077 20.72 18.8292 20.5859C19.1506 20.4518 19.4424 20.2553 19.6875 20.0078C19.935 19.7627 20.1315 19.471 20.2655 19.1495C20.3996 18.828 20.4687 18.4831 20.4688 18.1348V15.0977L23.4121 12.0234V18.1348C23.4112 18.8687 23.2656 19.5952 22.9838 20.2728C22.7019 20.9504 22.2893 21.5659 21.7695 22.084V22.0938C20.7237 23.1415 19.3046 23.731 17.8242 23.7324H2.24609C1.65236 23.7313 1.08335 23.4946 0.664062 23.0742C0.454354 22.8658 0.287767 22.6182 0.173824 22.3454C0.0598802 22.0726 0.000813552 21.78 0 21.4844L0 5.91797C0.000979855 5.18436 0.146555 4.45815 0.428402 3.78084C0.710248 3.10354 1.12284 2.48843 1.64258 1.9707L1.65234 1.95312C2.17 1.43397 2.78486 1.02187 3.46181 0.740372C4.13875 0.458871 4.86452 0.313479 5.59766 0.312499V0.320311ZM14.2578 14.9355L8.51172 16.1074L9.3418 9.99219L14.2578 14.9355ZM11.1582 8.14062L18.8086 0.177733C18.8907 0.0876751 19.001 0.0283286 19.1214 0.00950607C19.2418 -0.00931649 19.365 0.0135121 19.4707 0.0742174L23.8613 4.32422C23.9083 4.37057 23.9449 4.42636 23.9687 4.48789C23.9925 4.54942 24.003 4.6153 23.9995 4.68119C23.996 4.74708 23.9786 4.81147 23.9483 4.87013C23.9181 4.92879 23.8758 4.98037 23.8242 5.02148L16.0703 13.0859L11.1582 8.14062Z" fill="black"/>
</g>
<defs>
<clipPath id="clip0_432_1388">
<rect width="24" height="23.7324" fill="white"/>
</clipPath>
</defs>
</svg>
