<svg width="124" height="87" viewBox="0 0 124 87" fill="none" xmlns="http://www.w3.org/2000/svg">
<g clip-path="url(#clip0_147_560)">
<path fill-rule="evenodd" clip-rule="evenodd" d="M47.5244 0.195862C52.9323 0.195862 57.3136 4.5771 57.3136 9.98504C57.3136 15.393 52.9323 19.7742 47.5244 19.7742C42.1165 19.7742 37.7352 15.393 37.7352 9.98504C37.7352 4.5771 42.1165 0.195862 47.5244 0.195862ZM19.3157 25.8734C23.1277 25.8734 26.2281 28.9636 26.2281 32.7858C26.2281 36.5978 23.1379 39.6982 19.3157 39.6982C15.4936 39.6982 12.4033 36.6079 12.4033 32.7858C12.4033 28.9738 15.4936 25.8734 19.3157 25.8734ZM9.91283 43.0324C10.4414 42.3107 11.214 41.8837 12.0374 41.7821V41.7719C16.8151 41.0197 21.5928 41.0502 26.3704 41.7617C27.2142 41.8024 28.0375 42.209 28.5763 42.9409C31.7377 47.2612 33.0694 50.0261 35.0618 54.1532C35.7123 55.495 36.4239 56.9792 37.0135 58.1482C37.7251 59.5815 37.1456 61.3198 35.7225 62.0313C34.2892 62.7429 32.5509 62.1635 31.8394 60.7403C30.9143 58.8801 30.3552 57.7212 29.847 56.6742C28.6475 54.1837 27.7021 52.2218 26.4111 50.0973V66.0263V66.8497V82.982C26.4111 84.6186 25.0083 85.9604 23.3005 85.9604C21.5928 85.9604 20.1899 84.6186 20.1899 82.982V66.8598H18.2585V82.9921C18.2585 84.6288 16.8557 85.9706 15.148 85.9706C13.4402 85.9706 12.0374 84.6288 12.0374 82.9921V66.8598V66.0364V51.1036C10.7566 53.2587 9.78069 55.2816 8.55068 57.8229C8.00176 58.9614 7.40201 60.2016 6.40581 62.2041C5.63325 63.7391 3.76283 64.3693 2.22788 63.5968C0.692917 62.8242 0.0626694 60.9538 0.835231 59.4188C1.46548 58.1583 2.23804 56.5624 2.92928 55.1088C5.07416 50.6564 6.50746 47.6779 9.91283 43.0324ZM104.704 15.8504C108.516 15.8504 111.617 18.9407 111.617 22.7628C111.617 26.5748 108.526 29.6752 104.704 29.6752C100.882 29.6752 97.7918 26.585 97.7918 22.7628C97.7918 18.9407 100.882 15.8504 104.704 15.8504ZM111.759 32.1657C112.603 32.2064 113.426 32.613 113.965 33.3449C117.126 37.655 119.241 43.256 121.233 47.3831C121.883 48.7351 122.595 50.2091 123.185 51.3883C123.896 52.8216 123.317 54.5598 121.883 55.2714C120.45 55.983 118.712 55.4035 118 53.9804C117.075 52.1303 116.516 50.9715 116.008 49.9143C114.747 47.3018 113.416 43.9778 111.789 40.8875V43.3373L116.648 64.8064H111.789V82.8193C111.789 84.4559 110.387 85.7978 108.679 85.7978C106.971 85.7978 105.568 84.4559 105.568 82.8193V64.8064H103.637V82.8193C103.637 84.4559 102.234 85.7978 100.526 85.7978C98.8185 85.7978 97.4156 84.4559 97.4156 82.8193V64.8064H93.0039L97.4156 43.7236V41.8532C96.7956 43.1544 96.3076 44.4555 95.3114 46.5191C94.7625 47.6576 94.5694 48.2065 93.563 50.1989C92.7904 51.7339 90.92 52.3641 89.3851 51.5916C87.8501 50.819 87.2199 48.9486 87.9924 47.4136C88.6227 46.1531 88.9886 45.2586 89.69 43.805C91.8349 39.3526 91.8959 38.0819 95.2911 33.4364C95.8197 32.7146 96.5922 32.2877 97.4156 32.186V32.1657C101.99 31.3525 106.768 31.3321 111.759 32.1657ZM74.8182 0.195862C80.2261 0.195862 84.6074 4.5771 84.6074 9.98504C84.6074 15.393 80.2261 19.7742 74.8182 19.7742C69.4103 19.7742 65.029 15.393 65.029 9.98504C65.0189 4.5771 69.4103 0.195862 74.8182 0.195862ZM76.16 68.3948V82.616C76.16 84.9134 78.1931 86.8041 80.6836 86.8041C83.1741 86.8041 85.2071 84.9236 85.2071 82.616V68.3948H91.6621L88.4702 53.2688C87.2605 52.6386 86.4066 51.5916 86 50.3819C85.5934 49.1621 85.6544 47.7897 86.2745 46.5496C86.4676 46.1633 86.6404 45.7974 86.8132 45.4314L84.892 36.303V35.4999C86.2135 37.6753 87.2809 39.7287 88.4092 42.0057C88.7548 41.2636 89.0496 40.5826 89.3241 39.9625C90.3203 37.6854 91.0318 36.0793 93.2174 33.0094C91.8349 30.5697 90.2491 28.0894 88.0432 25.0805C87.2605 24.0131 86.0712 23.4235 84.8412 23.3626C77.9999 22.1224 71.4738 22.1631 65.2425 23.3727V23.4032C64.2463 23.4845 63.2908 23.9115 62.569 24.6637C64.6224 27.51 66.1269 29.9192 67.4585 32.2877C68.8918 34.8493 70.1218 37.3907 71.5856 40.4301C72.0532 41.4059 72.5513 42.4428 73.0393 43.439C73.5882 44.5674 74.0761 45.5635 74.4116 46.2345C75.1232 47.6576 75.1842 49.2231 74.7267 50.6157C74.2591 52.0083 73.2629 53.2282 71.8499 53.9397C70.437 54.6513 68.8613 54.7123 67.4687 54.2549C66.076 53.7873 64.8562 52.7911 64.1446 51.3781C63.5652 50.2192 60.9324 44.8113 60.5258 43.9981L58.8485 68.405H64.9375V82.6262C64.9375 84.9235 66.9706 86.8143 69.4611 86.8143C71.9516 86.8143 73.9846 84.9337 73.9846 82.6262V68.3948H76.16ZM48.5613 58.6869V82.616C48.5613 84.9134 50.5943 86.8041 53.0848 86.8041C55.5753 86.8041 57.6084 84.9236 57.6084 82.616V58.6869V35.2051C59.4889 38.2954 60.8613 41.1518 62.6097 44.7707C63.3518 46.3056 64.165 47.9931 65.517 50.6869C66.5538 52.7707 69.085 53.6145 71.1689 52.5674C73.2426 51.5306 74.0965 48.9994 73.0494 46.9155C72.1956 45.2078 71.1587 43.0629 70.2133 41.101C67.3162 35.0933 65.3746 31.0577 60.7698 24.7857C59.987 23.7183 58.8079 23.1288 57.588 23.0678C54.203 22.2647 37.1965 20.6993 34.2079 24.7857C29.9791 30.5596 27.9969 34.4224 25.4454 39.688C25.8418 39.7388 26.2281 39.7897 26.6144 39.8507C27.2751 39.9015 27.9257 40.0946 28.5153 40.4097C29.1354 40.7452 29.6945 41.2128 30.1316 41.8126C30.955 42.9409 31.6666 43.9676 32.2866 44.9333L32.3578 44.7808C34.2892 40.7757 35.7632 37.7159 37.969 34.2293V55.7593C38.2638 56.3591 38.5281 56.8978 38.7314 57.3146C39.321 58.504 39.382 59.8153 38.9957 60.9843C38.7822 61.6247 38.4366 62.2245 37.969 62.7226V82.6262C37.969 84.9235 40.0021 86.8143 42.4926 86.8143C44.9831 86.8143 47.0161 84.9337 47.0161 82.6262V58.6869H48.5613Z" fill="black"/>
</g>
<defs>
<clipPath id="clip0_147_560">
<rect width="123" height="86.6083" fill="white" transform="translate(0.5 0.195862)"/>
</clipPath>
</defs>
</svg>
