<svg width="60" height="67" viewBox="0 0 60 67" fill="none" xmlns="http://www.w3.org/2000/svg">
<path fill-rule="evenodd" clip-rule="evenodd" d="M38.0675 18.6157C55.3171 -1.40791 72.1507 28.2105 46.3804 33.0078C72.1507 38.0137 55.1092 67.4235 38.0675 47.3996C46.7961 72.4292 12.9205 72.2208 21.6492 47.3996C4.39959 67.4235 -12.4343 38.0137 13.3361 33.0078C-12.6421 28.2105 4.39959 -1.19934 21.6492 18.6157C12.7126 -6.20525 46.7961 -6.20525 38.0675 18.6157ZM29.7543 29.2534C31.8327 29.2534 33.703 30.922 33.703 33.0078C33.703 35.0935 31.8327 36.9709 29.7543 36.9709C27.6761 36.9709 26.0134 35.0935 26.0134 33.0078C26.0134 30.922 27.6761 29.2534 29.7543 29.2534Z" fill="#CEAC00"/>
</svg>
