<svg width="24" height="24" viewBox="0 0 24 24" fill="none" xmlns="http://www.w3.org/2000/svg">
<path d="M12 24C18.6274 24 24 18.6274 24 12C24 5.37258 18.6274 0 12 0C5.37258 0 0 5.37258 0 12C0 18.6274 5.37258 24 12 24Z" fill="#9FE0DE"/>
<path d="M9.40807 16.0615L6.48284 13.1196C6.26479 12.8981 6.14258 12.5998 6.14258 12.2889C6.14258 11.9781 6.26479 11.6798 6.48284 11.4583C6.5912 11.3492 6.72006 11.2625 6.86201 11.2034C7.00395 11.1443 7.15617 11.1139 7.30992 11.1139C7.46366 11.1139 7.61589 11.1443 7.75784 11.2034C7.89978 11.2625 8.02864 11.3492 8.137 11.4583L10.2342 13.5692L15.8428 7.92732C15.9511 7.81803 16.0799 7.73142 16.2219 7.67221C16.3638 7.613 16.5161 7.58252 16.6699 7.58252C16.8237 7.58252 16.976 7.613 17.118 7.67221C17.2599 7.73142 17.3888 7.81803 17.497 7.92732C17.7159 8.14839 17.8388 8.44709 17.8388 8.75823C17.8388 9.06936 17.7159 9.36783 17.497 9.5889L11.0622 16.0644C10.9539 16.1736 10.8249 16.2601 10.6829 16.3193C10.5409 16.3784 10.3885 16.409 10.2347 16.409C10.0808 16.409 9.9285 16.3784 9.78647 16.3193C9.64444 16.2601 9.51552 16.1736 9.40715 16.0644L9.40807 16.0615Z" fill="white"/>
</svg>
