<svg width="32" height="32" viewBox="0 0 32 32" fill="none" xmlns="http://www.w3.org/2000/svg">
<rect width="32" height="32" rx="6.4" fill="white"/>
<path d="M23.2774 9.48839H17.4471V8H16.3602L8 9.4921V22.5116L16.3112 24H17.4471V22.5172H22.903C23.212 22.5023 23.5555 22.5265 23.8208 22.333C24.0334 22 23.9789 21.5832 23.9971 21.2074V10.2102C24.0353 9.78605 23.6918 9.44559 23.2774 9.48839ZM14.063 18.5284C13.7595 18.6902 13.3051 18.5209 12.9453 18.547C12.7035 17.3154 12.4218 16.0912 12.2056 14.854C11.9929 16.0558 11.7167 17.2465 11.4731 18.4409C11.1242 18.4223 10.7734 18.4 10.4227 18.3758C10.1209 16.7386 9.76656 15.1125 9.48484 13.4716C9.79563 13.4567 10.1082 13.4437 10.419 13.4326C10.6062 14.6177 10.8188 15.7972 10.9824 16.9842C11.2387 15.7674 11.5004 14.5507 11.7548 13.334C12.1002 13.3135 12.4455 13.2986 12.7908 13.28C13.0325 14.5358 13.2797 15.7898 13.5414 17.04C13.7468 15.7488 13.9739 14.4614 14.1938 13.1721C14.5573 13.1591 14.9208 13.1386 15.2825 13.1163C14.8718 14.9191 14.5119 16.7368 14.063 18.5284ZM23.1321 21.6336H17.4471V20.4651H22.1724V19.7209H17.4471V18.7907H22.1724V18.0465H17.4471V17.1163H22.1724V16.3721H17.4471V15.4418H22.1724V14.6977H17.4471V13.7674H22.1724V13.0233H17.4471V12.093H22.1724V11.3488H17.4471V10.3664H23.1321V21.6336V21.6336Z" fill="#2471FF"/>
</svg>
